<svg width="68" height="18" viewBox="0 0 68 18" fill="none" xmlns="http://www.w3.org/2000/svg">
<path d="M13.7734 1V17H10.8516L3.89063 6.92969H3.77344V17H0.390625V1H3.35938L10.2656 11.0625H10.4063V1H13.7734ZM24.708 5.60156C24.6455 4.97135 24.3773 4.48177 23.9034 4.13281C23.4294 3.78385 22.7862 3.60937 21.9737 3.60937C21.4216 3.60937 20.9554 3.6875 20.5752 3.84375C20.195 3.99479 19.9034 4.20573 19.7002 4.47656C19.5023 4.7474 19.4034 5.05469 19.4034 5.39844C19.3929 5.6849 19.4528 5.9349 19.583 6.14844C19.7185 6.36198 19.9034 6.54687 20.1377 6.70312C20.3721 6.85417 20.6429 6.98698 20.9502 7.10156C21.2575 7.21094 21.5857 7.30469 21.9346 7.38281L23.3721 7.72656C24.07 7.88281 24.7107 8.09115 25.294 8.35156C25.8773 8.61198 26.3825 8.93229 26.8096 9.3125C27.2367 9.69271 27.5674 10.1406 27.8018 10.6562C28.0414 11.1719 28.1638 11.763 28.169 12.4297C28.1638 13.4089 27.9138 14.2578 27.419 14.9766C26.9294 15.6901 26.2211 16.2448 25.294 16.6406C24.3721 17.0312 23.2601 17.2266 21.958 17.2266C20.6664 17.2266 19.5414 17.0286 18.583 16.6328C17.6299 16.237 16.8851 15.651 16.3487 14.875C15.8174 14.0937 15.5388 13.1276 15.5127 11.9766H18.7862C18.8226 12.513 18.9763 12.9609 19.2471 13.3203C19.5232 13.6745 19.8903 13.9427 20.3487 14.125C20.8122 14.3021 21.3357 14.3906 21.919 14.3906C22.4919 14.3906 22.9893 14.3073 23.4112 14.1406C23.8383 13.974 24.169 13.7422 24.4034 13.4453C24.6377 13.1484 24.7549 12.8073 24.7549 12.4219C24.7549 12.0625 24.6482 11.7604 24.4346 11.5156C24.2263 11.2708 23.919 11.0625 23.5127 10.8906C23.1117 10.7187 22.6195 10.5625 22.0362 10.4219L20.294 9.98437C18.945 9.65625 17.8799 9.14323 17.0987 8.44531C16.3174 7.7474 15.9294 6.80729 15.9346 5.625C15.9294 4.65625 16.1872 3.8099 16.708 3.08594C17.2341 2.36198 17.9554 1.79687 18.8721 1.39062C19.7888 0.984374 20.8304 0.781249 21.9971 0.781249C23.1846 0.781249 24.2211 0.984374 25.1065 1.39062C25.9971 1.79687 26.6898 2.36198 27.1846 3.08594C27.6794 3.8099 27.9346 4.64844 27.9502 5.60156H24.708ZM33.2872 1V17H29.9044V1H33.2872ZM41.2023 17H35.5304V1H41.2491C42.8585 1 44.2439 1.32031 45.4054 1.96094C46.5669 2.59635 47.4601 3.51042 48.0851 4.70312C48.7153 5.89583 49.0304 7.32292 49.0304 8.98437C49.0304 10.651 48.7153 12.0833 48.0851 13.2812C47.4601 14.4792 46.5616 15.3984 45.3898 16.0391C44.2231 16.6797 42.8273 17 41.2023 17ZM38.9132 14.1016H41.0616C42.0616 14.1016 42.9028 13.9245 43.5851 13.5703C44.2726 13.2109 44.7882 12.6562 45.132 11.9062C45.4809 11.151 45.6554 10.1771 45.6554 8.98437C45.6554 7.80208 45.4809 6.83594 45.132 6.08594C44.7882 5.33594 44.2752 4.78385 43.5929 4.42969C42.9106 4.07552 42.0695 3.89844 41.0695 3.89844H38.9132V14.1016ZM50.9963 17V1H61.7775V3.78906H54.3791V7.60156H61.2228V10.3906H54.3791V14.2109H61.8088V17H50.9963ZM65.8098 17.2031C65.2941 17.2031 64.8514 17.0208 64.4816 16.6562C64.1171 16.2865 63.9348 15.8437 63.9348 15.3281C63.9348 14.8177 64.1171 14.3802 64.4816 14.0156C64.8514 13.651 65.2941 13.4687 65.8098 13.4687C66.3098 13.4687 66.7473 13.651 67.1223 14.0156C67.4973 14.3802 67.6848 14.8177 67.6848 15.3281C67.6848 15.6719 67.5962 15.987 67.4191 16.2734C67.2473 16.5547 67.0207 16.7812 66.7395 16.9531C66.4582 17.1198 66.1483 17.2031 65.8098 17.2031Z" fill="white"/>
</svg>
